# AST/ASF file generated using VICON BodyLanguage
# -----------------------------------------------
:version 1.10
:name VICON
:units
  mass 1.0
  length 0.45
  angle deg
:documentation
   .ast/.asf automatically generated from VICON data using
   VICON BodyBuilder and BodyLanguage model FoxedUp or BRILLIANT.MOD
:root
   order TX TY TZ RX RY RZ
   axis XYZ
   position 0 0 0  
   orientation 0 0 0 
:bonedata
  begin
     id 1 
     name lhipjoint
     direction 0.693937 -0.600361 0.397515 
     length 2.37164 
     axis 0 0 0  XYZ
  end
  begin
     id 2 
     name lfemur
     direction 0.34202 -0.939693 0  
     length 6.18497  
     axis 0 0 20  XYZ
    dof rx ry rz
    limits (-160.0 20.0)
           (-70.0 70.0)
           (-60.0 70.0)
  end
  begin
     id 3 
     name ltibia
     direction 0.34202 -0.939693 0   
     length 6.91601   
     axis 0 0 20   XYZ
    dof rx
    limits (-10.0 170.0)
  end
  begin
     id 4 
     name lfoot
     direction 0.0978718 -0.2689 0.958182   
     length 1.81453   
     axis -90 7.62852e-016 20   XYZ
    dof rx rz
    limits (-45.0 90.0)
           (-70.0 20.0)
  end
  begin
     id 5 
     name ltoes
     direction 1.53569e-011 -4.21951e-011 1   
     length 0.912052   
     axis -90 7.62852e-016 20   XYZ
    dof rx
    limits (-90.0 20.0)
  end
  begin
     id 6 
     name rhipjoint
     direction -0.643996 -0.637876 0.422354   
     length 2.23216  
     axis 0 0 0  XYZ 
  end
  begin
     id 7 
     name rfemur
     direction -0.34202 -0.939693 0   
     length 6.15404   
     axis 0 0 -20   XYZ
    dof rx ry rz
    limits (-160.0 20.0)
           (-70.0 70.0)
           (-70.0 60.0)
  end
  begin
     id 8 
     name rtibia
     direction -0.34202 -0.939693 0   
     length 6.86744   
     axis 0 0 -20   XYZ
    dof rx
    limits (-10.0 170.0)
 end
 begin
     id 9 
     name rfoot
     direction -0.118701 -0.326127 0.937844   
     length 1.9243  
     axis -90 -7.62852e-016 -20   XYZ
    dof rx rz
    limits (-45.0 90.0)
           (-20.0 70.0)
  end
  begin
     id 10 
     name rtoes
     direction -1.5356e-011 -4.2181e-011 1   
     length 0.958865   
     axis -90 -7.62852e-016 -20   XYZ
    dof rx
    limits (-90.0 20.0)
  end
  begin
     id 11 
     name lowerback
     direction 0.0310826 0.968686 -0.246334   
     length 2.00021   
     axis 0 0 0   XYZ
    dof rx ry rz
    limits (-20.0 45.0)
           (-30.0 30.0)
           (-30.0 30.0)
  end
  begin
     id 12 
     name upperback
     direction -0.0152834 0.999474 -0.0286152   
     length 2.03728   
     axis 0 0 0   XYZ
    dof rx ry rz
    limits (-20.0 45.0)
           (-30.0 30.0)
           (-30.0 30.0)
  end
  begin
     id 13 
     name thorax
     direction -0.0323701 0.996236 0.0804149   
     length 2.16   
     axis 0 0 0   XYZ
    dof rx ry rz
    limits (-20.0 45.0)
           (-30.0 30.0)
           (-30.0 30.0)
  end
  begin
     id 14 
     name lowerneck
     direction 0.0307935 0.982251 0.185027   
     length 1.43558   
     axis 0 0 0   XYZ
    dof rx ry rz
    limits (-20.0 45.0)
           (-30.0 30.0)
           (-30.0 30.0)
  end
  begin
     id 15 
     name upperneck
     direction -0.0927153 0.994775 0.0427454   
     length 1.44603   
     axis 0 0 0   XYZ
    dof rx ry rz
    limits (-20.0 45.0)
           (-30.0 30.0)
           (-30.0 30.0)
  end
  begin
     id 16
     name head
     direction -0.0341265 0.999406 -0.00472033  
     length 1.45931  
     axis 0 0 0   XYZ
    dof rx ry rz
    limits (-20.0 45.0)
           (-30.0 30.0)
           (-30.0 30.0)
  end
  begin
     id 17 
     name lclavicle
     direction 0.820755 0.555306 -0.134151  
     length 2.66075  
     axis 0 0 0   XYZ
    dof ry rz
    limits (-20.0 10.0)
           (0.0 20.0)
  end
  begin
     id 18 
     name lhumerus
     direction 1 -4.48971e-011 5.24853e-027   
     length 5.0546   
     axis -180 -30 -90   XYZ
    dof rx ry rz
    limits (-60.0 90.0)
           (-90.0 90.0)
           (-90.0 90.0)
  end
  begin
     id 19
     name lradius
     direction 1 -4.48971e-011 2.76575e-028   
     length 3.39013   
     axis -180 -30 -90   XYZ
    dof rx
    limits (-10.0 170.0)
  end
  begin
     id 20
     name lwrist
     direction 1 -4.48939e-011 -2.27826e-027   
     length 1.69507   
     axis 2.17013e-015 90 90   XYZ
    dof ry
    limits (-180.0 0.0)
 end
  begin
     id 21 
     name lhand
     direction 1 -4.49009e-011 -4.55652e-027   
     length 0.572425   
     axis 2.90745e-015 90 90   XYZ
    dof rx rz
    limits (-90.0 90.0)
           (-45.0 45.0)
  end
  begin
     id 22 
     name lfingers
     direction 1 -4.48955e-011 -9.11303e-027   
     length 0.461504   
     axis 5.81489e-015 90 90   XYZ
    dof rx
    limits (0.0 90.0)
  end
  begin
     id 23
     name lthumb
     direction 0.707107 -6.34929e-011 0.707107   
     length 0.66263   
     axis -90 45 2.85299e-015   XYZ
    dof rx rz
    limits (-45.0 45.0)
           (-45.0 45.0)
  end
  begin
     id 24 
     name rclavicle
     direction -0.754477 0.632921 -0.173712   
     length 2.73081  
     axis 0 0 0   XYZ 
    dof ry rz
    limits (-10.0 20.0)
           (-20.0 0.0)
  end
  begin
     id 25 
     name rhumerus
     direction -1 -4.48969e-011 5.1496e-027  
     length 5.0701   
     axis -180 30 90   XYZ
    dof rx ry rz
    limits (-90.0 60.0)
           (-90.0 90.0)
           (-90.0 90.0)
  end
  begin
     id 26 
     name rradius
     direction -1 -4.48967e-011 -7.15624e-028   
     length 3.14957   
     axis -180 30 90   XYZ
    dof rx
    limits (-10.0 170.0)
  end
  begin
     id 27 
     name rwrist
     direction -1 -4.48938e-011 -2.27826e-027   
     length 1.57479   
     axis 2.17013e-015 -90 -90   XYZ
    dof ry
    limits (-180.0 0.0)
  end
  begin
     id 28
     name rhand
     direction -1 -4.49008e-011 -4.55652e-027   
     length 0.718191   
     axis 2.90745e-015 -90 -90   XYZ
    dof rx rz
    limits (-90.0 90.0)
           (-45.0 45.0)
  end
  begin
     id 29
     name rfingers
     direction -1 -4.48953e-011 -9.11303e-027   
     length 0.579024   
     axis 5.81489e-015 -90 -90   XYZ
    dof rx
    limits (0.0 90.0)
  end
  begin
     id 30
     name rthumb
     direction -0.707107 -6.34937e-011 0.707107   
     length 0.831366   
     axis -90 -45 -2.85299e-015   XYZ
    dof rx rz
    limits (-45.0 45.0)
           (-45.0 45.0)
  end
:hierarchy
  begin
    root lhipjoint rhipjoint lowerback
    lhipjoint lfemur
    lfemur ltibia
    ltibia lfoot
    lfoot ltoes
    rhipjoint rfemur
    rfemur rtibia
    rtibia rfoot
    rfoot rtoes
    lowerback upperback
    upperback thorax
    thorax lowerneck lclavicle rclavicle
    lowerneck upperneck
    upperneck head
    lclavicle lhumerus
    lhumerus lradius
    lradius lwrist
    lwrist lhand lthumb
    lhand lfingers
    rclavicle rhumerus
    rhumerus rradius
    rradius rwrist
    rwrist rhand rthumb
    rhand rfingers
  end

#!OML:ASF H:\Male1\Project 1\Capture day 1\Session 1\Male1.ASF
:FULLY-SPECIFIED
:DEGREES
247
root -9.8575 15.1523 13.5117 8.55699 81.1841 10.6426
lowerback 2.72822 1.04367 -3.87841
upperback 4.49934 1.51425 -1.70997
thorax 3.05574 0.709491 0.411584
lowerneck -5.78461 9.17431 13.192
upperneck 17.1904 13.2526 -10.7163
head 7.83919 6.49355 -4.40147
rclavicle -2.87244e-014 1.94809e-014
rhumerus -34.4421 -4.37059 -87.4085
rradius 33.1043
rwrist -19.6873
rhand -16.8926 -0.778724
rfingers 7.12502
rthumb 9.33898 -30.5519
lclavicle -2.87244e-014 1.94809e-014
lhumerus -22.7137 -19.4861 91.5032
lradius 45.7487
lwrist 8.10604
lhand -22.1993 13.0613
lfingers 7.12502
lthumb 4.21633 42.9993
rfemur -20.125 14.2661 15.4791
rtibia 30.5657
rfoot -16.6984 -18.735
rtoes -31.421
lfemur 12.707 -16.601 -26.921
ltibia 27.1566
lfoot -12.2832 1.6629
ltoes -9.82445
248
root -9.63764 15.1787 13.6445 9.01142 82.0444 10.9084
lowerback 2.43485 1.02598 -3.76106
upperback 4.53491 1.5059 -1.64366
thorax 3.25846 0.703804 0.420776
lowerneck -5.75325 9.16071 13.2465
upperneck 17.2432 13.27 -10.8463
head 7.86583 6.49892 -4.45255
rclavicle -2.01766e-014 4.77083e-015
rhumerus -34.3538 -4.6644 -87.2419
rradius 32.8233
rwrist -19.4255
rhand -16.7463 -1.09601
rfingers 7.12502
rthumb 9.48018 -30.8628
lclavicle -2.01766e-014 4.77083e-015
lhumerus -23.1939 -18.6672 91.518
lradius 44.2484
lwrist 7.811
lhand -22.2395 12.9632
lfingers 7.12502
lthumb 4.17749 42.902
rfemur -19.1223 13.2041 16.1894
rtibia 30.5124
rfoot -17.6864 -18.1811
rtoes -28.1758
lfemur 10.2875 -15.3657 -25.7538
ltibia 31.9142
lfoot -10.1867 0.14488
ltoes -9.10136
249
root -9.42168 15.2002 13.7749 6.53572 82.8729 8.33928
lowerback 2.41102 1.05086 -3.19921
upperback 4.44109 1.52956 -1.52092
thorax 3.18097 0.731016 0.233371
lowerneck -5.39195 9.12869 13.1653
upperneck 17.1817 13.2603 -10.7307
head 7.76542 6.51475 -4.41922
rclavicle -1.96797e-014 7.15625e-015
rhumerus -34.6759 -4.68589 -87.1743
rradius 32.9164
rwrist -19.6892
rhand -16.544 -1.41649
rfingers 7.12502
rthumb 9.6753 -31.1743
lclavicle -1.96797e-014 7.15625e-015
lhumerus -24.0695 -17.9353 91.5353
lradius 42.8338
lwrist 7.41499
lhand -22.3524 13.0255
lfingers 7.12502
lthumb 4.06852 42.9664
rfemur -17.827 12.5883 17.3199
rtibia 30.1431
rfoot -18.1171 -18.4116
rtoes -27.566
lfemur 7.79554 -13.8081 -24.1962
ltibia 36.9296
lfoot -8.0733 -1.22629
ltoes -10.1064
250
root -9.20882 15.2206 13.9005 0.542855 83.675 2.20959
lowerback 2.43039 1.17874 -2.21498
upperback 4.39982 1.69389 -1.40104
thorax 3.14282 0.841224 -0.193147
lowerneck -5.40813 9.05091 13.2168
upperneck 17.0661 13.1154 -10.6554
head 7.71006 6.45392 -4.41972
rclavicle 8.84592e-015 -7.55382e-015
rhumerus -35.0664 -5.03326 -87.1099
rradius 33.1405
rwrist -19.7441
rhand -16.3732 -1.50512
rfingers 7.12502
rthumb 9.84011 -31.2552
lclavicle 8.84592e-015 -7.55382e-015
lhumerus -24.7134 -17.7563 91.4282
lradius 41.3591
lwrist 7.22211
lhand -22.3795 13.2311
lfingers 7.12502
lthumb 4.0423 43.1725
rfemur -16.3545 12.1529 18.7709
rtibia 29.3927
rfoot -18.5378 -18.7336
rtoes -26.4025
lfemur 5.15082 -12.2294 -22.3919
ltibia 42.125
lfoot -6.23536 -2.03659
ltoes -13.0109
251
root -8.99982 15.2513 14.0183 -9.1128 84.5031 -7.60408
lowerback 2.50537 1.23892 -1.11578
upperback 4.34209 1.76369 -1.15545
thorax 3.0618 0.90467 -0.557178
lowerneck -5.52661 9.03369 13.2752
upperneck 17.2141 13.0883 -10.6358
head 7.77897 6.44341 -4.41995
rclavicle -8.15017e-015 -8.34896e-015
rhumerus -35.6991 -4.94359 -87.0754
rradius 33.5741
rwrist -19.7292
rhand -16.6345 -1.31848
rfingers 7.12502
rthumb 9.58798 -31.0803
lclavicle -8.15017e-015 -8.34896e-015
lhumerus -25.405 -17.4806 91.4055
lradius 39.7848
lwrist 6.63351
lhand -22.3184 13.4897
lfingers 7.12502
lthumb 4.10133 43.43
rfemur -14.7099 11.2883 20.367
rtibia 28.2637
rfoot -17.3573 -19.1119
rtoes -30.0073
lfemur 2.27146 -10.8659 -20.537
ltibia 47.2959
lfoot -4.51213 -2.00343
ltoes -14.1889
252
root -8.79378 15.2886 14.1307 -21.0643 85.241 -19.5698
lowerback 2.82015 1.21332 -0.175578
upperback 4.34596 1.72344 -0.854035
thorax 2.90581 0.908315 -0.780883
lowerneck -5.65189 9.08679 13.0771
upperneck 17.0972 13.1462 -10.5817
head 7.75281 6.45769 -4.358
rclavicle -8.94531e-016 5.1684e-015
rhumerus -36.0226 -4.44501 -87.0556
rradius 33.9352
rwrist -19.9355
rhand -16.8567 -1.38912
rfingers 7.12502
rthumb 9.37363 -31.1607
lclavicle -8.94531e-016 5.1684e-015
lhumerus -26.0587 -16.8514 91.3832
lradius 38.199
lwrist 5.63664
lhand -22.3214 13.7282
lfingers 7.12502
lthumb 4.09844 43.6685
rfemur -12.8226 10.2304 21.8062
rtibia 26.8711
rfoot -18.4162 -18.6803
rtoes -26.8002
lfemur -0.62018 -9.60689 -18.9587
ltibia 52.1897
lfoot -3.25536 -1.28494
ltoes -11.2833
253
root -8.59188 15.3228 14.2425 -33.1911 85.7645 -31.6221
lowerback 3.24209 1.43474 0.653748
upperback 4.31015 2.02596 -0.752793
thorax 2.66153 1.08285 -1.15391
lowerneck -5.81666 8.95757 13.0575
upperneck 17.2105 12.9133 -10.3332
head 7.77129 6.35901 -4.29377
rclavicle -1.67973e-014 -3.97569e-016
rhumerus -36.3018 -4.91453 -86.853
rradius 34.0107
rwrist -19.9296
rhand -16.5771 -2.08689
rfingers 7.12502
rthumb 9.64335 -31.8462
lclavicle -1.67973e-014 -3.97569e-016
lhumerus -26.7687 -16.7131 91.3057
lradius 36.5809
lwrist 4.84395
lhand -22.2531 13.776
lfingers 7.12502
lthumb 4.1644 43.715
rfemur -10.86 9.57093 22.9808
rtibia 25.3877
rfoot -19.0793 -18.5656
rtoes -24.8515
lfemur -3.37083 -8.28236 -17.7517
ltibia 56.5787
lfoot -2.69941 -0.134815
ltoes -5.35981
254
root -8.39436 15.3507 14.3494 -43.5727 86.0257 -41.9466
lowerback 3.56224 1.65593 1.16654
upperback 4.32298 2.33076 -0.604204
thorax 2.51837 1.2483 -1.30048
lowerneck -5.76983 8.84581 13.0604
upperneck 17.0099 12.776 -10.4989
head 7.69034 6.28477 -4.36913
rclavicle -3.97569e-015 1.70955e-014
rhumerus -36.2924 -5.19853 -86.5686
rradius 33.533
rwrist -20.1295
rhand -16.5026 -2.31851
rfingers 7.12502
rthumb 9.71526 -32.0744
lclavicle -3.97569e-015 1.70955e-014
lhumerus -27.3799 -15.9338 91.1489
lradius 34.857
lwrist 3.85972
lhand -22.1078 13.7456
lfingers 7.12502
lthumb 4.30465 43.6818
rfemur -9.06122 9.31201 23.9545
rtibia 24.047
rfoot -20.1027 -18.5316
rtoes -22.2014
lfemur -5.93076 -6.81506 -16.8671
ltibia 60.2429
lfoot -3.57017 2.12618
ltoes -4.07422
255
root -8.20155 15.3662 14.4443 -54.0297 86.2976 -52.2971
lowerback 3.82789 1.86513 1.62298
upperback 4.41814 2.62665 -0.556561
thorax 2.49732 1.41198 -1.51725
lowerneck -5.95812 8.76806 13.162
upperneck 17.1434 12.6492 -10.499
head 7.75835 6.22505 -4.39248
rclavicle -1.56046e-014 -3.57812e-015
rhumerus -35.9941 -5.63861 -86.3532
rradius 33.1434
rwrist -20.35
rhand -16.8513 -3.82346
rfingers 7.12502
rthumb 9.37884 -33.5948
lclavicle -1.56046e-014 -3.57812e-015
lhumerus -27.999 -15.2167 90.8843
lradius 33.3197
lwrist 3.01735
lhand -22.009 13.766
lfingers 7.12502
lthumb 4.40012 43.7003
rfemur -7.43985 8.8236 24.7124
rtibia 23.0105
rfoot -20.7853 -18.5679
rtoes -20.9455
lfemur -8.3163 -5.49244 -16.3764
ltibia 63.0914
lfoot -4.53186 3.96784
ltoes -1.52311
256
root -8.00962 15.3716 14.5302 -66.5106 86.7946 -64.6198
lowerback 4.0623 1.99283 1.79346
upperback 4.55883 2.81266 -0.575744
thorax 2.52926 1.51563 -1.64029
lowerneck -5.84719 8.68655 13.2545
upperneck 16.8879 12.5328 -10.6174
head 7.65366 6.17054 -4.46606
rclavicle 3.77691e-015 1.98785e-015
rhumerus -35.6549 -6.1472 -86.0829
rradius 32.6626
rwrist -20.1995
rhand -17.1983 -4.52284
rfingers 7.12502
rthumb 9.04399 -34.309
lclavicle 3.77691e-015 1.98785e-015
lhumerus -28.747 -14.3477 90.5586
lradius 32.0904
lwrist 2.34758
lhand -21.9736 13.8806
lfingers 7.12502
lthumb 4.43425 43.8142
rfemur -5.95969 8.10352 25.1181
rtibia 22.3316
rfoot -20.6894 -18.8126
rtoes -22.598
lfemur -10.5976 -4.5649 -16.4728
ltibia 65.1568
lfoot -5.53747 5.01557
ltoes -3.06569
257
root -7.82589 15.373 14.6151 -71.9398 86.9267 -69.8553
lowerback 4.44206 2.14589 1.76656
upperback 4.67526 3.02781 -0.449385
thorax 2.43867 1.62411 -1.51217
lowerneck -5.67595 8.70948 13.0554
upperneck 16.7035 12.6237 -10.7598
head 7.56989 6.19962 -4.47855
rclavicle 2.46493e-014 -1.43125e-014
rhumerus -35.1652 -5.97403 -85.8917
rradius 32.042
rwrist -19.9732
rhand -17.5102 -5.06308
rfingers 7.12502
rthumb 8.74307 -34.862
lclavicle 2.46493e-014 -1.43125e-014
lhumerus -29.5253 -12.7387 90.1208
lradius 30.8628
lwrist 1.35087
lhand -21.9068 14.0672
lfingers 7.12502
lthumb 4.49876 43.9995
rfemur -4.74635 7.6914 25.5389
rtibia 22.0637
rfoot -20.0586 -18.8854
rtoes -25.263
lfemur -12.6132 -3.31497 -16.6512
ltibia 66.4148
lfoot -6.46925 4.87646
ltoes -1.49355
258
root -7.64138 15.3647 14.6899 -90.9814 86.6259 -88.9893
lowerback 4.50866 2.22708 2.52459
upperback 4.71252 3.15956 -0.402375
thorax 2.48658 1.71411 -1.89035
lowerneck -5.51313 8.56861 13.5559
upperneck 16.4639 12.4415 -11.1695
head 7.49895 6.12021 -4.72357
rclavicle -4.03533e-014 5.56597e-015
rhumerus -34.6471 -6.6428 -85.7544
rradius 31.3359
rwrist -19.6243
rhand -17.6327 -5.51392
rfingers 7.12502
rthumb 8.6248 -35.3177
lclavicle -4.03533e-014 5.56597e-015
lhumerus -30.3067 -12.0643 89.5808
lradius 29.7007
lwrist 0.57153
lhand -21.77 14.1921
lfingers 7.12502
lthumb 4.63084 44.1215
rfemur -3.99426 7.33717 26.454
rtibia 22.1622
rfoot -20.9684 -19.147
rtoes -24.0224
lfemur -14.9037 -2.95005 -16.4584
ltibia 67.0033
lfoot -7.42734 3.76
ltoes 0.106385
259
root -7.46604 15.3456 14.7576 -96.8703 86.1977 -94.7566
lowerback 4.91115 2.43785 3.15352
upperback 4.77376 3.47497 -0.309243
thorax 2.37702 1.89147 -2.16828
lowerneck -5.60441 8.59108 13.6539
upperneck 16.3898 12.4884 -11.4014
head 7.51892 6.12932 -4.80681
rclavicle 3.98563e-014 -3.97569e-015
rhumerus -34.2556 -7.17747 -85.5512
rradius 30.9774
rwrist -19.1897
rhand -17.3961 -4.94485
rfingers 7.12502
rthumb 8.85309 -34.7391
lclavicle 3.98563e-014 -3.97569e-015
lhumerus -31.2651 -11.2181 89.0433
lradius 28.8931
lwrist -0.111849
lhand -21.5895 14.7116
lfingers 7.12502
lthumb 4.80517 44.6371
rfemur -3.29567 7.11493 27.2911
rtibia 22.5175
rfoot -21.4755 -19.4151
rtoes -24.7453
lfemur -16.617 -2.22948 -16.5087
ltibia 66.8229
lfoot -8.78385 2.20646
ltoes -7.38176
